# xmcd
#
# Track frame offsets:
#	150
#	20018
#	34171
#	52190
#	69064
#	87183
#	103627
#	122323
#	133108
#	147835
#	161601
#
# Disc length: 2393 seconds
#
# Revision: 0
# Processed by: cddbd v1.5.2PL0 Copyright (c) Steve Scherf et al.
# Submitted via: dBpowerAMP V4.0
#
DISCID=8f09570b
DTITLE=Eyoi Eyan - ennea tragoudia,duo orxistrika
DYEAR=1900
DGENRE=
TTITLE0=Soma,Psixi
TTITLE1=Gkrizo
TTITLE2=To tragoudi sou
TTITLE3=Gyrizontas Piso
TTITLE4=Stamatima Anagkastiko
TTITLE5=Kleino tis pliges
TTITLE6=Maska
TTITLE7=Mesogeios
TTITLE8=Plani
TTITLE9=Kontrol
TTITLE10=Selini
EXTD=
EXTT0=
EXTT1=
EXTT2=
EXTT3=
EXTT4=
EXTT5=
EXTT6=
EXTT7=
EXTT8=
EXTT9=
EXTT10=
PLAYORDER=
